<svg width="16" height="16" viewBox="0 0 16 16" fill="none" xmlns="http://www.w3.org/2000/svg">
<g id="ic_right arrow / 16 / Outline">
<path id="Vector" d="M9.88666 7.52667L7.05999 4.70001C6.99802 4.63752 6.92428 4.58792 6.84304 4.55408C6.7618 4.52023 6.67467 4.50281 6.58666 4.50281C6.49865 4.50281 6.41151 4.52023 6.33027 4.55408C6.24904 4.58792 6.1753 4.63752 6.11333 4.70001C5.98916 4.82491 5.91946 4.99388 5.91946 5.17001C5.91946 5.34613 5.98916 5.5151 6.11333 5.64001L8.47333 8.00001L6.11333 10.36C5.98916 10.4849 5.91946 10.6539 5.91946 10.83C5.91946 11.0061 5.98916 11.1751 6.11333 11.3C6.17562 11.3618 6.2495 11.4107 6.33072 11.4439C6.41195 11.477 6.49892 11.4938 6.58666 11.4933C6.6744 11.4938 6.76137 11.477 6.8426 11.4439C6.92382 11.4107 6.9977 11.3618 7.05999 11.3L9.88666 8.47334C9.94914 8.41136 9.99874 8.33763 10.0326 8.25639C10.0664 8.17515 10.0839 8.08801 10.0839 8.00001C10.0839 7.912 10.0664 7.82486 10.0326 7.74362C9.99874 7.66238 9.94914 7.58865 9.88666 7.52667Z" fill="#FF5722"/>
</g>
</svg>
