<svg width="17" height="16" viewBox="0 0 17 16" fill="none" xmlns="http://www.w3.org/2000/svg">
<circle cx="8.04327" cy="8" r="7.5" fill="#FFEBEE" stroke="#FF7043"/>
<g clip-path="url(#clip0_13_313)">
<path d="M11.2516 8.92745C11.2515 8.92647 11.2515 8.92548 11.2514 8.92452C11.2213 8.50731 11.1444 8.15303 11.0095 7.81088C11.0077 7.8057 11.0057 7.80057 11.0036 7.79545C10.9959 7.77688 10.2377 5.92723 10.5927 4.91072C10.6248 4.81901 10.6092 4.7174 10.5513 4.63944C10.4933 4.56147 10.4006 4.51743 10.3035 4.52157C10.2774 4.5227 9.74716 4.55212 9.18469 5.047C8.69241 4.03129 8.61468 2.95223 8.61388 2.94045C8.60722 2.8384 8.54782 2.74723 8.45717 2.69991C8.3665 2.65256 8.25776 2.65599 8.17021 2.70883C7.39335 3.17809 6.79321 3.75078 6.38649 4.41102C6.05808 4.94409 5.85557 5.5329 5.78456 6.16112C5.74191 6.53847 5.75205 6.88358 5.7835 7.17348C5.79807 7.3078 5.66391 7.40878 5.53887 7.35764L4.78496 7.04921C4.73357 7.02818 4.67733 7.01943 4.62251 7.02826C4.50708 7.04685 4.41715 7.12967 4.38635 7.23682C4.31794 7.47481 4.26671 7.69478 4.22971 7.90928C4.10092 8.65633 4.15362 9.42143 4.38204 10.1219C4.61169 10.8262 5.00799 11.4326 5.5281 11.8758C6.14276 12.3995 6.88711 12.6661 7.6988 12.6661C8.14668 12.6661 8.61511 12.5849 9.09349 12.4209C9.85233 12.1608 10.4533 11.6456 10.8314 10.9311C11.1457 10.3372 11.2949 9.62559 11.2516 8.92745Z" fill="#FF5722"/>
<path d="M8.50273 7.74473C8.42869 7.63427 8.28956 7.58743 8.16386 7.63092C8.03815 7.67432 7.95748 7.79694 7.96738 7.92955C8.00231 8.39768 7.95551 9.77417 7.30443 9.95269C6.75017 10.1047 6.45452 9.84799 6.4258 9.82136C6.35393 9.74301 6.24844 9.71333 6.14484 9.73817C6.04054 9.76326 5.96169 9.84698 5.93387 9.95058C5.92835 9.97114 5.87934 10.1548 5.85868 10.2745C5.72622 11.0429 5.97741 11.8044 6.51425 12.2618C6.82913 12.53 7.20891 12.6666 7.6218 12.6666C7.84704 12.6666 8.0822 12.6259 8.32187 12.5438C8.70806 12.4114 9.03826 12.1314 9.2768 11.734C9.47632 11.4016 9.59234 11.0137 9.59515 10.6699C9.6023 9.7852 9.2654 8.88305 8.50273 7.74473Z" fill="#FFEB00"/>
</g>
<defs>
<clipPath id="clip0_13_313">
<rect width="10" height="10" fill="white" transform="translate(2.70994 2.66666)"/>
</clipPath>
</defs>
</svg>
