<svg width="16" height="16" viewBox="0 0 16 16" fill="none" xmlns="http://www.w3.org/2000/svg">
<g id="ic_Thunder / 16 / Outline">
<path id="Vector" d="M13.2467 5.73334C13.197 5.61915 13.1163 5.52116 13.0138 5.45046C12.9113 5.37976 12.7911 5.33919 12.6667 5.33334H9.61333L10.46 2.17334C10.487 2.07445 10.4908 1.97069 10.4711 1.87009C10.4515 1.7695 10.4089 1.6748 10.3467 1.59334C10.2846 1.51266 10.2048 1.44728 10.1135 1.40221C10.0222 1.35714 9.92181 1.33358 9.82 1.33334H5.15333C5.00282 1.32818 4.855 1.37414 4.73395 1.46372C4.61289 1.5533 4.52573 1.68123 4.48667 1.82667L2.7 8.49334C2.67303 8.59222 2.66923 8.69599 2.68889 8.79658C2.70854 8.89717 2.75113 8.99188 2.81333 9.07334C2.87612 9.15491 2.95695 9.22083 3.04948 9.26594C3.14201 9.31105 3.24373 9.33412 3.34667 9.33334H5.92667L4.72 13.8267C4.68046 13.9716 4.69101 14.1256 4.74993 14.2637C4.80886 14.4019 4.9127 14.5161 5.04464 14.5878C5.17658 14.6596 5.32888 14.6847 5.47687 14.6591C5.62486 14.6334 5.75986 14.5586 5.86 14.4467L13.1267 6.44667C13.2132 6.35193 13.2705 6.23423 13.2918 6.10769C13.3131 5.98116 13.2974 5.85118 13.2467 5.73334ZM6.72 11.52L7.43333 8.85334C7.4603 8.75445 7.4641 8.65069 7.44445 8.55009C7.42479 8.4495 7.3822 8.3548 7.32 8.27334C7.25789 8.19266 7.17814 8.12728 7.08684 8.08221C6.99555 8.03714 6.89514 8.01358 6.79333 8.01334H4.23333L5.66 2.66667H8.94667L8.1 5.82667C8.07282 5.92737 8.06964 6.03305 8.09074 6.13521C8.11183 6.23736 8.1566 6.33314 8.22144 6.41484C8.28628 6.49654 8.36939 6.56189 8.46409 6.60563C8.55878 6.64937 8.66242 6.67028 8.76667 6.66667H11.1467L6.72 11.52Z" fill="#F44336"/>
</g>
</svg>
