<svg width="53" height="15" viewBox="0 0 53 15" fill="none" xmlns="http://www.w3.org/2000/svg">
<path d="M51.7109 13.2976C51.7109 13.2701 51.7153 13.2425 51.7235 13.2154C51.7324 13.1882 51.7444 13.1619 51.7615 13.1359C51.7779 13.1104 51.7982 13.0861 51.8222 13.063C51.8462 13.0399 51.8741 13.0188 51.9044 12.999C51.9354 12.9795 51.969 12.9621 52.005 12.9467C52.0411 12.9313 52.079 12.9183 52.1189 12.9074C52.1594 12.8968 52.2005 12.8887 52.2429 12.8835C52.2859 12.8782 52.3283 12.8754 52.3719 12.8754V12.5224C52.3283 12.5228 52.2852 12.52 52.2429 12.5147C52.2005 12.509 52.1587 12.5013 52.1189 12.4908C52.0784 12.4798 52.0404 12.4669 52.0044 12.4515C51.9683 12.4361 51.9348 12.4186 51.9038 12.3992C51.8734 12.3793 51.8456 12.3583 51.8216 12.3352C51.7975 12.3121 51.7773 12.2877 51.7602 12.2618C51.7438 12.2363 51.7311 12.2099 51.7229 12.1828C51.714 12.1552 51.7102 12.1281 51.7102 12.1001C51.7102 12.0726 51.714 12.045 51.7229 12.0178C51.7311 11.9903 51.7438 11.964 51.7602 11.9384C51.7773 11.9129 51.7975 11.8882 51.8216 11.8651C51.8456 11.8424 51.8734 11.8209 51.9038 11.801C51.9348 11.7816 51.9683 11.7642 52.0044 11.7488C52.0404 11.7334 52.0784 11.7204 52.1189 11.7099C52.1587 11.6989 52.2005 11.6912 52.2429 11.6855C52.2852 11.6803 52.3283 11.6778 52.3719 11.6778V11.3228C52.3283 11.3228 52.2852 11.32 52.2429 11.3147C52.2005 11.3095 52.1587 11.3014 52.1189 11.2908C52.0784 11.2803 52.0404 11.2669 52.0044 11.2515C51.9683 11.2361 51.9348 11.2187 51.9038 11.1992C51.8734 11.1794 51.8456 11.1583 51.8216 11.1352C51.7975 11.1121 51.7773 11.0878 51.7602 11.0619C51.7438 11.0363 51.7311 11.01 51.7229 10.9828C51.714 10.9557 51.7102 10.9281 51.7102 10.9002C51.7102 10.8726 51.714 10.845 51.7229 10.8179C51.7311 10.7903 51.7438 10.764 51.7602 10.7385C51.7773 10.7129 51.7975 10.6886 51.8216 10.6655C51.8456 10.6424 51.8734 10.6209 51.9038 10.6015C51.9348 10.5816 51.9683 10.5642 52.0044 10.5488C52.0404 10.5334 52.0784 10.5204 52.1189 10.5099C52.1587 10.4994 52.2005 10.4913 52.2429 10.486C52.2852 10.4803 52.3283 10.4779 52.3719 10.4779V10.1249C52.3283 10.1249 52.2859 10.1225 52.2429 10.1168C52.2005 10.1115 52.1594 10.1034 52.1189 10.0929C52.079 10.0823 52.0411 10.0694 52.005 10.054C51.969 10.0386 51.9354 10.0208 51.9044 10.0013C51.8741 9.98185 51.8462 9.96037 51.8222 9.93727C51.7982 9.91417 51.7779 9.88985 51.7615 9.86432C51.7444 9.83879 51.7324 9.81204 51.7235 9.78489C51.7153 9.75774 51.7109 9.73018 51.7109 9.70263C51.7109 9.67466 51.7153 9.64751 51.7235 9.62036C51.7324 9.5928 51.7444 9.56646 51.7615 9.54093C51.7779 9.5154 51.7982 9.49108 51.8222 9.46798C51.8462 9.44488 51.8741 9.4234 51.9044 9.40395C51.9354 9.38409 51.969 9.36667 52.005 9.35127C52.0411 9.33587 52.079 9.3229 52.1189 9.31236C52.1594 9.30183 52.2005 9.29372 52.2429 9.28805C52.2859 9.28278 52.3283 9.27994 52.3719 9.27994V8.92737C52.3283 8.92737 52.2859 8.92453 52.2429 8.91927C52.2005 8.914 52.1594 8.90589 52.1189 8.89536C52.079 8.88441 52.0411 8.87145 52.005 8.85605C51.969 8.84065 51.9354 8.82322 51.9044 8.80377C51.8741 8.78391 51.8462 8.76284 51.8222 8.73974C51.7982 8.71664 51.7779 8.69232 51.7615 8.66639C51.7444 8.64086 51.7324 8.61451 51.7235 8.58736C51.7153 8.56021 51.7109 8.53265 51.7109 8.5051C51.7109 8.47713 51.7153 8.44958 51.7235 8.42242C51.7324 8.39527 51.7444 8.36893 51.7615 8.3434C51.7779 8.31746 51.7982 8.29315 51.8222 8.27005C51.8462 8.24735 51.8741 8.22587 51.9044 8.20602C51.9354 8.18656 51.969 8.16914 52.005 8.15374C52.0411 8.13834 52.079 8.12537 52.1189 8.11443C52.1594 8.10389 52.2005 8.09619 52.2429 8.09052C52.2859 8.08525 52.3283 8.08241 52.3719 8.08241V7.72741C52.3283 7.72741 52.2859 7.72457 52.2429 7.71931C52.2005 7.71404 52.1594 7.70593 52.1189 7.69539C52.079 7.68486 52.0411 7.67148 52.005 7.65609C51.969 7.64069 51.9354 7.62326 51.9044 7.60381C51.8741 7.58395 51.8462 7.56288 51.8222 7.53978C51.7982 7.51668 51.7779 7.49236 51.7615 7.46683C51.7444 7.44089 51.7324 7.41455 51.7235 7.3874C51.7153 7.36025 51.7109 7.33269 51.7109 7.30513C51.7109 7.27717 51.7153 7.24961 51.7235 7.22246C51.7324 7.19531 51.7444 7.16897 51.7615 7.14344C51.7779 7.11791 51.7982 7.09319 51.8222 7.07049C51.8462 7.04739 51.8741 7.02591 51.9044 7.00646C51.9354 6.9866 51.969 6.96918 52.005 6.95378C52.0411 6.93838 52.079 6.92541 52.1189 6.91487C52.1594 6.90393 52.2005 6.89623 52.2429 6.89056C52.2859 6.88529 52.3283 6.88245 52.3719 6.88245V6.52988C52.3283 6.52988 52.2859 6.52704 52.2429 6.52178C52.2005 6.5161 52.1594 6.5084 52.1189 6.49746C52.079 6.48692 52.0411 6.47396 52.005 6.45856C51.969 6.44316 51.9354 6.42573 51.9044 6.40587C51.8741 6.38642 51.8462 6.36494 51.8222 6.34184C51.7982 6.31915 51.7779 6.29443 51.7615 6.2689C51.7444 6.24336 51.7324 6.21702 51.7235 6.18987C51.7153 6.16272 51.7109 6.13516 51.7109 6.1072C51.7109 6.07964 51.7153 6.05208 51.7235 6.02493C51.7324 5.99778 51.7444 5.97144 51.7615 5.9455C51.7779 5.91997 51.7982 5.89566 51.8222 5.87256C51.8462 5.84946 51.8741 5.82838 51.9044 5.80853C51.9354 5.78907 51.969 5.77165 52.005 5.75625C52.0411 5.74085 52.079 5.72747 52.1189 5.71694C52.1594 5.7064 52.2005 5.6983 52.2429 5.69303C52.2859 5.68776 52.3283 5.68492 52.3719 5.68492V5.33195C52.3283 5.33195 52.2859 5.32951 52.2429 5.32384C52.2005 5.31857 52.1594 5.31047 52.1189 5.29993C52.079 5.28939 52.0411 5.27643 52.005 5.26103C51.969 5.24563 51.9354 5.2282 51.9044 5.20834C51.8741 5.18889 51.8462 5.16741 51.8222 5.14431C51.7982 5.12121 51.7779 5.0969 51.7615 5.07137C51.7444 5.04584 51.7324 5.01949 51.7235 4.99194C51.7153 4.96478 51.7109 4.93723 51.7109 4.90967C51.7109 4.88211 51.7153 4.85455 51.7235 4.8274C51.7324 4.80025 51.7444 4.7735 51.7615 4.74797C51.7779 4.72244 51.7982 4.69813 51.8222 4.67503C51.8462 4.65193 51.8741 4.63045 51.9044 4.611C51.9354 4.59154 51.969 4.57371 52.005 4.55831C52.0411 4.54291 52.079 4.52994 52.1189 4.51941C52.1594 4.50887 52.2005 4.50077 52.2429 4.4955C52.2859 4.48982 52.3283 4.48739 52.3719 4.48739V4.13239C52.3283 4.13239 52.2859 4.12955 52.2429 4.12428C52.2005 4.11861 52.1594 4.11051 52.1189 4.09997C52.079 4.08943 52.0411 4.07646 52.005 4.06106C51.969 4.04566 51.9354 4.02824 51.9044 4.00838C51.8741 3.98893 51.8462 3.96745 51.8222 3.94435C51.7982 3.92125 51.7779 3.89694 51.7615 3.8714C51.7444 3.84587 51.7324 3.81953 51.7235 3.79238C51.7153 3.76482 51.7109 3.73767 51.7109 3.70971C51.7109 3.68215 51.7153 3.65459 51.7235 3.62744C51.7324 3.60029 51.7444 3.57354 51.7615 3.54801C51.7779 3.52248 51.7982 3.49816 51.8222 3.47507C51.8462 3.45197 51.8741 3.43049 51.9044 3.41103C51.9354 3.39158 51.969 3.37375 52.005 3.35835C52.0411 3.34295 52.079 3.32998 52.1189 3.31945C52.1594 3.30891 52.2005 3.30081 52.2429 3.29554C52.2859 3.28986 52.3283 3.28743 52.3719 3.28743V2.93445C52.3283 2.93445 52.2859 2.93202 52.2429 2.92635C52.2005 2.92108 52.1594 2.91298 52.1189 2.90244C52.079 2.8919 52.0411 2.87893 52.005 2.86353C51.969 2.84813 51.9354 2.8303 51.9044 2.81085C51.8741 2.7914 51.8462 2.76992 51.8222 2.74682C51.7982 2.72372 51.7779 2.69941 51.7615 2.67388C51.7444 2.64834 51.7324 2.6216 51.7235 2.59445C51.7153 2.56729 51.7109 2.53974 51.7109 2.51218C51.7109 2.48422 51.7153 2.45706 51.7235 2.42951C51.7324 2.40235 51.7444 2.37601 51.7615 2.35048C51.7779 2.32495 51.7982 2.30063 51.8222 2.27754C51.8462 2.25444 51.8741 2.23296 51.9044 2.21351C51.9354 2.19365 51.969 2.17622 52.005 2.16082C52.0411 2.14542 52.079 2.13245 52.1189 2.12192C52.1594 2.11138 52.2005 2.10328 52.2429 2.0976C52.2859 2.09233 52.3283 2.0895 52.3719 2.0895V1.73692C52.3283 1.73692 52.2852 1.73409 52.2429 1.72882C52.2005 1.72355 52.1587 1.71545 52.1189 1.70491C52.079 1.69437 52.0404 1.681 52.0044 1.6656C51.9683 1.6502 51.9348 1.63277 51.9044 1.61332C51.8734 1.59346 51.8462 1.57239 51.8222 1.54929C51.7982 1.52619 51.7779 1.50188 51.7608 1.47635C51.7444 1.45041 51.7317 1.42407 51.7235 1.39692C51.7147 1.36976 51.7109 1.34221 51.7109 1.31465C51.7109 1.28669 51.7147 1.25913 51.7235 1.23198C51.7317 1.20482 51.7444 1.17848 51.7608 1.15255C51.7779 1.12702 51.7982 1.1027 51.8222 1.0796C51.8462 1.0565 51.8734 1.03543 51.9044 1.01557C51.9348 0.996118 51.9683 0.978692 52.0044 0.963292C52.0404 0.947892 52.079 0.934519 52.1189 0.923982C52.1587 0.913446 52.2005 0.905341 52.2429 0.900072C52.2852 0.894804 52.3283 0.891967 52.3719 0.891967V0H0.115479V0.898857C0.195183 0.905341 0.270459 0.920335 0.341308 0.94465C0.412789 0.96856 0.474781 1.00017 0.527918 1.03867C0.581054 1.07717 0.621539 1.12053 0.650005 1.16876C0.678471 1.21658 0.69302 1.26642 0.69302 1.31789C0.69302 1.36936 0.678471 1.4188 0.650005 1.46702C0.621539 1.51525 0.581054 1.55861 0.527918 1.59711C0.474781 1.63561 0.412789 1.66682 0.341308 1.69113C0.270459 1.71504 0.195183 1.73044 0.115479 1.73692V2.0895C0.158494 2.0895 0.201509 2.09233 0.243891 2.0976C0.286906 2.10328 0.328024 2.11138 0.367876 2.12192C0.408361 2.13245 0.446315 2.14542 0.482372 2.16082C0.518429 2.17622 0.551956 2.19365 0.582319 2.21351C0.613315 2.23296 0.640516 2.25444 0.664554 2.27754C0.689224 2.30063 0.709467 2.32495 0.725914 2.35048C0.742361 2.37601 0.755012 2.40235 0.763236 2.42951C0.772092 2.45706 0.77652 2.48422 0.77652 2.51218C0.77652 2.53974 0.772092 2.56729 0.763236 2.59445C0.755012 2.6216 0.742361 2.64834 0.725914 2.67388C0.709467 2.69941 0.689224 2.72372 0.664554 2.74682C0.640516 2.76992 0.613315 2.7914 0.582319 2.81085C0.551956 2.8303 0.518429 2.84813 0.482372 2.86353C0.446315 2.87893 0.408361 2.8919 0.367876 2.90244C0.328024 2.91298 0.286906 2.92108 0.243891 2.92635C0.201509 2.93202 0.158494 2.93445 0.115479 2.93445V3.28743C0.158494 3.28743 0.201509 3.28986 0.243891 3.29554C0.286906 3.30081 0.328024 3.30891 0.367876 3.31945C0.408361 3.32998 0.446315 3.34295 0.482372 3.35835C0.518429 3.37375 0.551956 3.39158 0.582319 3.41103C0.613315 3.43049 0.640516 3.45197 0.664554 3.47507C0.689224 3.49816 0.709467 3.52248 0.725914 3.54801C0.742361 3.57354 0.755012 3.60029 0.763236 3.62744C0.772092 3.65459 0.77652 3.68215 0.77652 3.70971C0.77652 3.73767 0.772092 3.76482 0.763236 3.79238C0.755012 3.81953 0.742361 3.84587 0.725914 3.8714C0.709467 3.89694 0.689224 3.92125 0.664554 3.94435C0.640516 3.96745 0.613315 3.98893 0.582319 4.00838C0.551956 4.02824 0.518429 4.04566 0.482372 4.06106C0.446315 4.07646 0.408361 4.08943 0.367876 4.09997C0.328024 4.11051 0.286906 4.11861 0.243891 4.12428C0.201509 4.12955 0.158494 4.13239 0.115479 4.13239V4.49388C0.158494 4.49388 0.201509 4.49671 0.243891 4.50198C0.286906 4.50766 0.328024 4.51536 0.367876 4.5263C0.408361 4.53683 0.446315 4.5498 0.482372 4.5652C0.518429 4.5806 0.551956 4.59803 0.582319 4.61789C0.613315 4.63734 0.640516 4.65882 0.664554 4.68192C0.689224 4.70461 0.709467 4.72933 0.725914 4.75486C0.742361 4.78039 0.755012 4.80673 0.763236 4.83389C0.772092 4.86104 0.77652 4.8886 0.77652 4.91656C0.77652 4.94412 0.772092 4.97167 0.763236 4.99883C0.755012 5.02598 0.742361 5.05232 0.725914 5.07826C0.709467 5.10379 0.689224 5.1281 0.664554 5.1512C0.640516 5.1743 0.613315 5.19537 0.582319 5.21523C0.551956 5.23468 0.518429 5.25211 0.482372 5.26751C0.446315 5.28291 0.408361 5.29628 0.367876 5.30682C0.328024 5.31736 0.286906 5.32546 0.243891 5.33073C0.201509 5.336 0.158494 5.33883 0.115479 5.33883V5.68492C0.158494 5.68492 0.201509 5.68776 0.243891 5.69303C0.286906 5.6983 0.328024 5.7064 0.367876 5.71694C0.408361 5.72747 0.446315 5.74085 0.482372 5.75625C0.518429 5.77165 0.551956 5.78907 0.582319 5.80853C0.613315 5.82838 0.640516 5.84946 0.664554 5.87256C0.689224 5.89566 0.709467 5.91997 0.725914 5.9455C0.742361 5.97144 0.755012 5.99778 0.763236 6.02493C0.772092 6.05208 0.77652 6.07964 0.77652 6.1072C0.77652 6.13516 0.772092 6.16272 0.763236 6.18987C0.755012 6.21702 0.742361 6.24336 0.725914 6.2689C0.709467 6.29443 0.689224 6.31915 0.664554 6.34184C0.640516 6.36494 0.613315 6.38642 0.582319 6.40587C0.551956 6.42573 0.518429 6.44316 0.482372 6.45856C0.446315 6.47396 0.408361 6.48692 0.367876 6.49746C0.328024 6.5084 0.286906 6.5161 0.243891 6.52178C0.201509 6.52704 0.158494 6.52988 0.115479 6.52988V6.88245C0.158494 6.88245 0.201509 6.88529 0.243891 6.89056C0.286906 6.89623 0.328024 6.90393 0.367876 6.91487C0.408361 6.92541 0.446315 6.93838 0.482372 6.95378C0.518429 6.96918 0.551956 6.9866 0.582319 7.00646C0.613315 7.02591 0.640516 7.04739 0.664554 7.07049C0.689224 7.09319 0.709467 7.11791 0.725914 7.14344C0.742361 7.16897 0.755012 7.19531 0.763236 7.22246C0.772092 7.24961 0.77652 7.27717 0.77652 7.30513C0.77652 7.33269 0.772092 7.36025 0.763236 7.3874C0.755012 7.41455 0.742361 7.44089 0.725914 7.46683C0.709467 7.49236 0.689224 7.51668 0.664554 7.53978C0.640516 7.56288 0.613315 7.58395 0.582319 7.60381C0.551956 7.62326 0.518429 7.64069 0.482372 7.65609C0.446315 7.67148 0.408361 7.68486 0.367876 7.69539C0.328024 7.70593 0.286906 7.71404 0.243891 7.71931C0.201509 7.72457 0.158494 7.72741 0.115479 7.72741V8.0893C0.158494 8.0893 0.201509 8.09173 0.243891 8.09741C0.286906 8.10268 0.328024 8.11078 0.367876 8.12132C0.408361 8.13186 0.446315 8.14482 0.482372 8.16022C0.518429 8.17562 0.551956 8.19345 0.582319 8.21291C0.613315 8.23236 0.640516 8.25384 0.664554 8.27694C0.689224 8.30004 0.709467 8.32435 0.725914 8.34988C0.742361 8.37582 0.755012 8.40216 0.763236 8.42931C0.772092 8.45646 0.77652 8.48402 0.77652 8.51158C0.77652 8.53954 0.772092 8.56669 0.763236 8.59425C0.755012 8.6214 0.742361 8.64775 0.725914 8.67328C0.709467 8.69881 0.689224 8.72312 0.664554 8.74622C0.640516 8.76932 0.613315 8.7908 0.582319 8.81025C0.551956 8.83011 0.518429 8.84754 0.482372 8.86294C0.446315 8.87834 0.408361 8.8913 0.367876 8.90184C0.328024 8.91238 0.286906 8.92048 0.243891 8.92616C0.201509 8.93142 0.158494 8.93426 0.115479 8.93426V9.27994C0.158494 9.27994 0.201509 9.28278 0.243891 9.28805C0.286906 9.29372 0.328024 9.30183 0.367876 9.31236C0.408361 9.3229 0.446315 9.33587 0.482372 9.35127C0.518429 9.36667 0.551956 9.38409 0.582319 9.40395C0.613315 9.4234 0.640516 9.44488 0.664554 9.46798C0.689224 9.49108 0.709467 9.5154 0.725914 9.54093C0.742361 9.56646 0.755012 9.5928 0.763236 9.62036C0.772092 9.64751 0.77652 9.67466 0.77652 9.70263C0.77652 9.73018 0.772092 9.75774 0.763236 9.78489C0.755012 9.81204 0.742361 9.83879 0.725914 9.86432C0.709467 9.88985 0.689224 9.91417 0.664554 9.93727C0.640516 9.96037 0.613315 9.98185 0.582319 10.0013C0.551956 10.0208 0.518429 10.0386 0.482372 10.054C0.446315 10.0694 0.408361 10.0823 0.367876 10.0929C0.328024 10.1034 0.286906 10.1115 0.243891 10.1168C0.201509 10.1225 0.158494 10.1249 0.115479 10.1249V10.4779C0.158494 10.4779 0.201509 10.4803 0.243891 10.486C0.286906 10.4913 0.328024 10.4994 0.367876 10.5099C0.408361 10.5204 0.446315 10.5334 0.482372 10.5488C0.518429 10.5642 0.551956 10.582 0.582319 10.6015C0.613315 10.6213 0.640516 10.6424 0.664554 10.6655C0.689224 10.6886 0.709467 10.7129 0.725914 10.7385C0.742361 10.7644 0.755012 10.7907 0.763236 10.8179C0.772092 10.845 0.77652 10.8726 0.77652 10.9002C0.77652 10.9281 0.772092 10.9553 0.763236 10.9828C0.755012 11.01 0.742361 11.0363 0.725914 11.0619C0.709467 11.0874 0.689224 11.1117 0.664554 11.1348C0.640516 11.1579 0.613315 11.1794 0.582319 11.1988C0.551956 11.2187 0.518429 11.2361 0.482372 11.2515C0.446315 11.2669 0.408361 11.2799 0.367876 11.2904C0.328024 11.301 0.286906 11.3091 0.243891 11.3147C0.201509 11.32 0.158494 11.3228 0.115479 11.3228V11.6843C0.158494 11.6843 0.201509 11.6872 0.243891 11.6928C0.286274 11.6981 0.328024 11.7062 0.367876 11.7167C0.407728 11.7273 0.445683 11.7402 0.48174 11.7556C0.517796 11.7715 0.551323 11.7889 0.582319 11.8083C0.612683 11.8282 0.639883 11.8493 0.663921 11.8724C0.687959 11.8955 0.708202 11.9198 0.725281 11.9453C0.741728 11.9708 0.75438 11.9972 0.762603 12.0247C0.770827 12.0519 0.775255 12.079 0.775255 12.107C0.775255 12.1346 0.770827 12.1621 0.762603 12.1893C0.75438 12.2164 0.741728 12.2428 0.725281 12.2683C0.708202 12.2938 0.687959 12.3181 0.663921 12.3412C0.639883 12.3643 0.612683 12.3858 0.582319 12.4053C0.551323 12.4251 0.517796 12.4426 0.48174 12.458C0.445683 12.4734 0.407728 12.4863 0.367876 12.4969C0.328024 12.5078 0.286274 12.5155 0.243891 12.5212C0.201509 12.5264 0.158494 12.5293 0.115479 12.5293V12.8754C0.158494 12.8754 0.201509 12.8782 0.243891 12.8835C0.286274 12.8891 0.328024 12.8973 0.367876 12.9078C0.407728 12.9183 0.445683 12.9313 0.48174 12.9467C0.517796 12.9621 0.551323 12.9795 0.582319 12.9994C0.612683 13.0188 0.639883 13.0403 0.663921 13.0634C0.687959 13.0865 0.708202 13.1108 0.725281 13.1364C0.741728 13.1619 0.75438 13.1882 0.762603 13.2154C0.770827 13.2425 0.775255 13.2701 0.775255 13.2976C0.775255 13.3256 0.770827 13.3532 0.762603 13.3803C0.75438 13.4075 0.741728 13.4338 0.725281 13.4593C0.708202 13.4849 0.687959 13.5092 0.663921 13.5323C0.639883 13.5554 0.612683 13.5769 0.582319 13.5963C0.551323 13.6158 0.517796 13.6336 0.48174 13.649C0.445683 13.6644 0.407728 13.6774 0.367876 13.6879C0.328024 13.6984 0.286274 13.7065 0.243891 13.7122C0.201509 13.7175 0.158494 13.7203 0.115479 13.7203V14.6192H52.3719V13.7203C52.3283 13.7203 52.2859 13.7175 52.2429 13.7122C52.2005 13.7065 52.1594 13.6988 52.1189 13.6879C52.079 13.6774 52.0411 13.6644 52.005 13.649C51.969 13.6336 51.9354 13.6162 51.9044 13.5963C51.8741 13.5769 51.8462 13.5554 51.8222 13.5327C51.7982 13.5096 51.7779 13.4853 51.7615 13.4593C51.7444 13.4338 51.7324 13.4075 51.7235 13.3803C51.7153 13.3532 51.7109 13.3256 51.7109 13.2976Z" fill="#F44336"/>
</svg>
